<svg width="368" height="298" viewBox="0 0 368 298" fill="none" xmlns="http://www.w3.org/2000/svg">
<path d="M186.878 290.169C268.23 289.1 332.978 221.279 332.978 139.894V82.3965C332.978 80.3585 331.341 78.7215 329.303 78.7215H234.253V26.9703C234.253 24.9323 232.616 23.2953 230.578 23.2953H139.203C137.165 23.2953 135.528 24.9323 135.528 26.9703V51.0251H40.4785C38.4405 51.0251 36.8035 52.6621 36.8035 54.7001V142.099C36.8369 224.52 104.19 291.239 186.878 290.169Z" fill="#FF788F" stroke="white" stroke-width="2" stroke-miterlimit="10" stroke-linecap="round" stroke-linejoin="round"/>
<path d="M124.871 126.931C125.806 126.597 126.508 125.729 126.574 124.726C126.641 123.858 126.675 123.022 126.675 122.12C126.675 121.252 126.641 120.383 126.574 119.514C126.508 118.512 125.839 117.643 124.871 117.309L119.291 115.372C118.523 115.104 117.955 114.503 117.721 113.735C117.287 112.432 116.785 111.162 116.151 109.959C115.783 109.258 115.783 108.389 116.117 107.687L118.656 102.342C119.091 101.44 118.957 100.337 118.289 99.569C117.153 98.266 115.95 97.0299 114.614 95.8939C113.845 95.2257 112.776 95.0921 111.841 95.5264L106.495 98.0655C105.76 98.3996 104.925 98.3996 104.224 98.0321C103.021 97.4308 101.751 96.8962 100.448 96.4619C99.6798 96.228 99.0785 95.6267 98.8112 94.8917L96.84 89.3123C96.5059 88.3768 95.6373 87.6752 94.635 87.6084C93.7664 87.5416 92.9311 87.5082 92.0291 87.5082C91.1604 87.5082 90.2918 87.5416 89.4231 87.6084C88.4209 87.6752 87.5522 88.3434 87.2181 89.3123L85.247 94.8917C84.9797 95.6601 84.3783 96.228 83.6099 96.4619C82.3069 96.8962 81.0374 97.3974 79.8347 98.0321C79.1331 98.3996 78.2644 98.3996 77.5628 98.0655L72.2173 95.5264C71.3153 95.0921 70.2128 95.2257 69.4443 95.8939C68.1414 97.0299 66.9052 98.2326 65.7693 99.569C65.1011 100.337 64.9675 101.406 65.4018 102.342L67.9409 107.687C68.275 108.422 68.275 109.258 67.9075 109.959C67.3061 111.162 66.7716 112.432 66.3373 113.735C66.1034 114.503 65.502 115.104 64.767 115.372L59.1877 117.343C58.2522 117.677 57.5506 118.545 57.4838 119.548C57.417 120.416 57.3835 121.252 57.3835 122.154C57.3835 123.022 57.417 123.891 57.4838 124.76C57.5506 125.762 58.2188 126.631 59.1877 126.965L64.767 128.936C65.5354 129.203 66.1034 129.804 66.3373 130.573C66.7716 131.876 67.2727 133.145 67.9075 134.348C68.275 135.05 68.275 135.918 67.9409 136.62L65.4018 141.965C64.9675 142.868 65.1011 143.97 65.7693 144.738C66.9052 146.041 68.108 147.278 69.4443 148.413C70.2128 149.082 71.2819 149.215 72.2173 148.781L77.5628 146.242C78.2978 145.908 79.1331 145.908 79.8347 146.275C81.0374 146.877 82.3069 147.411 83.6099 147.846C84.3783 148.079 84.9797 148.681 85.247 149.416L87.2181 154.995C87.5522 155.931 88.4209 156.632 89.4231 156.699C90.2918 156.766 91.127 156.799 92.0291 156.799C92.8977 156.799 93.7664 156.766 94.635 156.699C95.6373 156.632 96.5059 155.964 96.84 154.995L98.8112 149.416C99.0785 148.647 99.6798 148.079 100.448 147.846C101.751 147.411 103.021 146.91 104.224 146.275C104.925 145.908 105.794 145.908 106.495 146.242L111.841 148.781C112.743 149.215 113.845 149.082 114.614 148.413C115.917 147.278 117.153 146.075 118.289 144.738C118.957 143.97 119.091 142.901 118.656 141.965L116.117 136.62C115.783 135.885 115.783 135.05 116.151 134.348C116.752 133.145 117.287 131.876 117.721 130.573C117.955 129.804 118.556 129.203 119.291 128.936L124.871 126.931ZM92.8309 136.152C84.512 136.587 77.663 129.738 78.0974 121.419C78.4649 114.303 84.2447 108.489 91.3609 108.155C99.6798 107.721 106.529 114.57 106.094 122.889C105.727 130.005 99.9471 135.785 92.8309 136.152Z" stroke="white" stroke-width="1.2" stroke-miterlimit="10" stroke-linecap="round" stroke-linejoin="round"/>
<path d="M91.6282 125.896L84.5454 138.959L93.2987 173.036L102.286 154.828L93.3989 126.063C93.165 125.261 92.0625 125.127 91.6282 125.896Z" fill="black" stroke="black" stroke-width="1.2" stroke-miterlimit="10" stroke-linecap="round" stroke-linejoin="round"/>
<path d="M231.246 263.776L239.532 248.642L227.137 214.898L221.324 233.307L231.246 263.776Z" fill="black" stroke="black" stroke-width="1.2" stroke-miterlimit="10" stroke-linecap="round" stroke-linejoin="round"/>
<path d="M83.7102 149.95L123.501 285.559C125.806 293.41 134.158 297.82 141.943 295.281L225.399 267.986C231.781 265.914 235.188 258.999 233.017 252.684L188.816 123.724C186.177 115.973 178.092 111.496 170.14 113.3L95.3701 130.205C86.4832 132.177 81.1711 141.264 83.7102 149.95Z" fill="black" stroke="black" stroke-width="1.2" stroke-miterlimit="10" stroke-linecap="round" stroke-linejoin="round"/>
<path d="M90.5593 137.555L130.35 273.164C132.655 281.015 141.007 285.425 148.792 282.886L232.215 255.557C238.596 253.486 242.004 246.57 239.832 240.256L195.632 111.296C192.992 103.545 184.907 99.0678 176.956 100.872L102.186 117.777C93.3323 119.782 87.9868 128.836 90.5593 137.555Z" fill="white" stroke="black" stroke-width="1.2" stroke-miterlimit="10" stroke-linecap="round" stroke-linejoin="round"/>
<path d="M198.705 120.283L93.0984 146.309L90.5258 137.555C87.9533 128.836 93.2988 119.782 102.152 117.777L176.923 100.872C184.907 99.0678 192.959 103.578 195.598 111.296L198.705 120.283Z" fill="#FF788F" stroke="black" stroke-width="1.2" stroke-miterlimit="10" stroke-linecap="round" stroke-linejoin="round"/>
<path d="M105.359 134.281C107.407 134.281 109.068 132.621 109.068 130.573C109.068 128.525 107.407 126.864 105.359 126.864C103.311 126.864 101.651 128.525 101.651 130.573C101.651 132.621 103.311 134.281 105.359 134.281Z" fill="black" stroke="black" stroke-width="1.2" stroke-miterlimit="10" stroke-linecap="round" stroke-linejoin="round"/>
<path d="M118.089 131.441C120.137 131.441 121.797 129.781 121.797 127.733C121.797 125.685 120.137 124.025 118.089 124.025C116.04 124.025 114.38 125.685 114.38 127.733C114.38 129.781 116.04 131.441 118.089 131.441Z" fill="#FF788F" stroke="black" stroke-width="1.2" stroke-miterlimit="10" stroke-linecap="round" stroke-linejoin="round"/>
<path d="M130.283 128.568C132.331 128.568 133.992 126.908 133.992 124.86C133.992 122.812 132.331 121.151 130.283 121.151C128.235 121.151 126.575 122.812 126.575 124.86C126.575 126.908 128.235 128.568 130.283 128.568Z" fill="white" stroke="black" stroke-width="1.2" stroke-miterlimit="10" stroke-linecap="round" stroke-linejoin="round"/>
<path d="M109.302 154.527L121.897 197.425L200.376 175.108L185.074 135.651L109.302 154.527Z" stroke="black" stroke-width="1.2" stroke-miterlimit="10" stroke-linecap="round" stroke-linejoin="round"/>
<path d="M126.675 212.459L141.842 263.776L225.767 235.946L209.663 187.436L180.13 196.423L182.001 208.149L165.496 213.228L167.568 220.711L150.161 226.291L144.582 207.247L126.675 212.459Z" fill="#FF788F" stroke="black" stroke-width="1.2" stroke-miterlimit="10" stroke-linecap="round" stroke-linejoin="round"/>
<path d="M116.652 179.551L123.768 169.628L131.753 171.433L140.74 156.298L146.721 161.376L149.494 156.732L158.38 164.918L166.466 152.89" stroke="black" stroke-width="1.2" stroke-miterlimit="10" stroke-linecap="round" stroke-linejoin="round"/>
<path d="M144.582 208.149L159.416 256.927" stroke="black" stroke-width="1.2" stroke-miterlimit="10" stroke-linecap="round" stroke-linejoin="round"/>
<path d="M165.497 213.228L176.956 251.381" stroke="black" stroke-width="1.2" stroke-miterlimit="10" stroke-linecap="round" stroke-linejoin="round"/>
<path d="M178.76 197.525L193.694 246.604" stroke="black" stroke-width="1.2" stroke-miterlimit="10" stroke-linecap="round" stroke-linejoin="round"/>
<path d="M195.966 192.013L210.666 240.39" stroke="black" stroke-width="1.2" stroke-miterlimit="10" stroke-linecap="round" stroke-linejoin="round"/>
<path d="M311.863 209.285L305.649 208.216C304.179 207.949 302.909 206.98 302.274 205.61L299.635 199.897C298.098 196.59 293.454 196.456 291.75 199.663L288.81 205.243C288.109 206.579 286.806 207.481 285.302 207.648L279.055 208.383C275.447 208.818 273.876 213.194 276.415 215.8L280.792 220.31C281.828 221.379 282.295 222.916 281.995 224.386L280.759 230.567C280.057 234.142 283.732 236.982 287.006 235.378L292.652 232.605C293.989 231.937 295.592 231.97 296.895 232.739L302.375 235.812C303.744 236.581 305.248 236.514 306.45 235.946C306.851 235.746 310.159 233.24 311.295 232.371C311.495 232.238 311.462 231.937 311.261 231.837L308.689 230.233L307.954 225.155C307.753 223.651 308.288 222.181 309.39 221.146L314.034 216.869C316.774 214.397 315.438 209.92 311.863 209.285Z" fill="black" stroke="black" stroke-width="1.2" stroke-miterlimit="10" stroke-linecap="round" stroke-linejoin="round"/>
<path d="M288.543 17.6825L282.429 15.2771C280.959 14.7091 279.89 13.4395 279.523 11.9361L278.053 5.55493C277.351 2.44786 273.91 1.1783 271.404 2.54809C271.237 2.64832 271.104 2.71513 270.97 2.84877C269.934 3.48355 267.495 5.05379 267.362 5.12061L269.199 4.75311L265.892 8.76223C264.889 9.96497 263.353 10.5998 261.816 10.4661L255.268 9.89815C253.864 9.76452 251.826 10.5663 250.924 11.4016L248.318 13.2391L250.29 14.943C250.356 15.6112 250.59 16.3128 250.991 16.9475L254.499 22.4935C255.334 23.8299 255.468 25.4669 254.867 26.9035L252.294 32.9506C250.824 36.4586 253.965 40.1337 257.64 39.1648L263.987 37.5277C265.491 37.1268 267.128 37.5277 268.297 38.53L273.242 42.8398C274.211 43.675 275.347 44.0091 276.416 43.9423L274.979 45.546L277.986 43.5414C279.489 42.8732 280.659 41.3698 280.792 39.2984L281.193 32.7502C281.293 31.5474 282.162 30.1108 283.498 29.309L289.111 25.9347C292.486 23.9301 292.085 19.0857 288.543 17.6825Z" fill="black" stroke="black" stroke-width="1.2" stroke-miterlimit="10" stroke-linecap="round" stroke-linejoin="round"/>
<path d="M267.395 5.08722C267.362 5.08722 267.362 5.08722 267.395 5.08722V5.08722Z" fill="black" stroke="black" stroke-width="1.2" stroke-miterlimit="10" stroke-linecap="round" stroke-linejoin="round"/>
<path d="M81.5053 197.692L80.2357 199.83C79.935 199.263 79.5007 198.728 78.8993 198.26L73.3534 193.95C72.017 192.915 71.3154 191.311 71.4156 189.641L71.8165 182.625C72.0504 178.582 67.5401 176.01 64.1658 178.281L58.3526 182.224C56.9494 183.159 55.2121 183.36 53.6418 182.758L47.0936 180.186C45.6236 179.618 44.1536 179.785 42.9508 180.453C42.0488 179.317 41.2804 178.382 41.2804 178.382C41.2804 178.382 40.7458 181.923 40.5119 183.627C40.3449 184.395 40.3449 185.231 40.5788 186.099L42.5165 192.848C42.9842 194.452 42.6167 196.189 41.5476 197.492L37.9728 201.902L36.8035 199.998L36.1353 204.842C36.0351 205.176 36.0017 205.51 36.0017 205.878V205.911C35.9349 208.417 37.8726 210.856 40.7458 210.922L47.7618 211.156C49.4322 211.223 50.9691 212.092 51.8711 213.495L55.6464 219.408C57.8514 222.816 62.9965 222.248 64.3997 218.439L66.8051 211.824C67.3731 210.254 68.6761 209.051 70.3131 208.617L77.0952 206.846C79.0664 206.345 80.3025 204.775 80.67 203.071C80.7702 202.904 80.8371 202.704 80.8371 202.503C81.0375 201.1 81.4384 197.893 81.5053 197.692Z" fill="black" stroke="black" stroke-width="1.2" stroke-miterlimit="10" stroke-linecap="round" stroke-linejoin="round"/>
<path d="M303.377 197.091L306.016 202.804C306.651 204.174 307.921 205.143 309.391 205.41L315.605 206.479C319.213 207.114 320.516 211.591 317.843 214.029L313.199 218.306C312.097 219.342 311.562 220.812 311.763 222.315L312.665 228.563C313.166 232.171 309.324 234.81 306.15 233.006L300.671 229.932C299.368 229.197 297.764 229.164 296.428 229.799L290.782 232.572C287.507 234.175 283.799 231.336 284.534 227.761L285.77 221.58C286.071 220.11 285.603 218.573 284.567 217.504L280.191 212.994C277.652 210.388 279.222 205.978 282.83 205.577L289.078 204.842C290.581 204.675 291.884 203.773 292.586 202.436L295.526 196.857C297.196 193.65 301.874 193.783 303.377 197.091Z" fill="#FF788F"/>
<mask id="mask0" mask-type="alpha" maskUnits="userSpaceOnUse" x="278" y="194" width="42" height="40">
<path d="M303.377 197.091L306.016 202.804C306.651 204.174 307.921 205.143 309.391 205.41L315.605 206.479C319.213 207.114 320.516 211.591 317.843 214.029L313.199 218.306C312.097 219.342 311.562 220.812 311.763 222.315L312.665 228.563C313.166 232.171 309.324 234.81 306.15 233.006L300.671 229.932C299.368 229.197 297.764 229.164 296.428 229.799L290.782 232.572C287.507 234.175 283.799 231.336 284.534 227.761L285.77 221.58C286.071 220.11 285.603 218.573 284.567 217.504L280.191 212.994C277.652 210.388 279.222 205.978 282.83 205.577L289.078 204.842C290.581 204.675 291.884 203.773 292.586 202.436L295.526 196.857C297.196 193.65 301.874 193.783 303.377 197.091Z" fill="#FF98AA"/>
</mask>
<g mask="url(#mask0)">
<path d="M321.425 206.666L282.117 231.643L291.596 246.56L330.903 221.583L321.425 206.666Z" fill="white"/>
<path d="M316.014 200.443L276.706 225.42L279.089 229.17L318.397 204.193L316.014 200.443Z" fill="white"/>
</g>
<path d="M303.377 197.091L306.016 202.804C306.651 204.174 307.921 205.143 309.391 205.41L315.605 206.479C319.213 207.114 320.516 211.591 317.843 214.029L313.199 218.306C312.097 219.342 311.562 220.812 311.763 222.315L312.665 228.563C313.166 232.171 309.324 234.81 306.15 233.006L300.671 229.932C299.368 229.197 297.764 229.164 296.428 229.799L290.782 232.572C287.507 234.175 283.799 231.336 284.534 227.761L285.77 221.58C286.071 220.11 285.603 218.573 284.567 217.504L280.191 212.994C277.652 210.388 279.222 205.978 282.83 205.577L289.078 204.842C290.581 204.675 291.884 203.773 292.586 202.436L295.526 196.857C297.196 193.65 301.874 193.783 303.377 197.091Z" stroke="black" stroke-width="1.2" stroke-miterlimit="10" stroke-linecap="round" stroke-linejoin="round"/>
<path d="M153.169 59.6113L145.685 73.1421L154.772 108.489L164.093 89.6129L154.872 59.8117C154.672 59.0099 153.603 58.8763 153.169 59.6113Z" fill="black" stroke="black" stroke-width="1.2" stroke-miterlimit="10" stroke-linecap="round" stroke-linejoin="round"/>
<path d="M297.931 202.637L306.517 186.934L293.655 151.921L287.641 171.032L297.931 202.637Z" fill="black" stroke="black" stroke-width="1.2" stroke-miterlimit="10" stroke-linecap="round" stroke-linejoin="round"/>
<path d="M144.849 84.5681L186.143 225.255C188.549 233.407 197.202 237.984 205.287 235.311L291.851 206.98C298.466 204.808 302.007 197.659 299.769 191.077L253.898 57.3394C251.158 49.3212 242.772 44.6439 234.52 46.5148L156.944 64.0547C147.756 66.1261 142.21 75.5141 144.849 84.5681Z" fill="black" stroke="black" stroke-width="1.2" stroke-miterlimit="10" stroke-linecap="round" stroke-linejoin="round"/>
<path d="M151.932 71.6721L193.226 212.359C195.632 220.511 204.285 225.088 212.37 222.415L298.933 194.084C305.549 191.912 309.09 184.763 306.851 178.181L260.98 44.4434C258.241 36.4252 249.855 31.7479 241.603 33.6188L164.026 51.1587C154.805 53.2301 149.293 62.6181 151.932 71.6721Z" fill="white" stroke="black" stroke-width="1.2" stroke-miterlimit="10" stroke-linecap="round" stroke-linejoin="round"/>
<path d="M263.987 53.2301L154.605 80.7594L151.932 71.6721C149.293 62.6181 154.805 53.2301 163.993 51.1587L241.57 33.6188C249.855 31.7479 258.208 36.4252 260.947 44.4434L263.987 53.2301Z" fill="#FF788F" stroke="black" stroke-width="1.2" stroke-miterlimit="10" stroke-linecap="round" stroke-linejoin="round"/>
<path d="M167.301 68.2978C169.441 68.2978 171.176 66.5627 171.176 64.4223C171.176 62.2819 169.441 60.5468 167.301 60.5468C165.16 60.5468 163.425 62.2819 163.425 64.4223C163.425 66.5627 165.16 68.2978 167.301 68.2978Z" fill="black" stroke="black" stroke-width="1.2" stroke-miterlimit="10" stroke-linecap="round" stroke-linejoin="round"/>
<path d="M180.531 65.3578C182.671 65.3578 184.406 63.6227 184.406 61.4823C184.406 59.3419 182.671 57.6068 180.531 57.6068C178.39 57.6068 176.655 59.3419 176.655 61.4823C176.655 63.6227 178.39 65.3578 180.531 65.3578Z" fill="#FF788F" stroke="black" stroke-width="1.2" stroke-miterlimit="10" stroke-linecap="round" stroke-linejoin="round"/>
<path d="M193.193 62.3843C195.333 62.3843 197.068 60.6492 197.068 58.5088C197.068 56.3684 195.333 54.6333 193.193 54.6333C191.053 54.6333 189.317 56.3684 189.317 58.5088C189.317 60.6492 191.053 62.3843 193.193 62.3843Z" fill="white" stroke="black" stroke-width="1.2" stroke-miterlimit="10" stroke-linecap="round" stroke-linejoin="round"/>
<path d="M72.5181 177.613L72.1172 184.629C72.017 186.3 72.752 187.903 74.055 188.939L79.6009 193.249C82.8082 195.755 81.7725 200.833 77.8302 201.869L71.0481 203.639C69.4111 204.074 68.1081 205.243 67.5401 206.846L65.1347 213.462C63.7649 217.27 58.5864 217.872 56.3814 214.43L52.6061 208.517C51.7041 207.114 50.1673 206.212 48.4968 206.178L41.4474 205.911C37.3715 205.777 35.2333 201.033 37.8392 197.893L42.2826 192.447C43.3517 191.144 43.7193 189.407 43.2515 187.803L41.3138 181.054C40.1779 177.146 44.0199 173.638 47.8286 175.141L54.3768 177.713C55.9471 178.315 57.6844 178.114 59.0876 177.179L64.9008 173.237C68.2417 170.965 72.752 173.537 72.5181 177.613Z" fill="#FF788F"/>
<mask id="mask1" mask-type="alpha" maskUnits="userSpaceOnUse" x="36" y="172" width="46" height="45">
<path d="M72.5181 177.613L72.1172 184.629C72.017 186.3 72.752 187.903 74.055 188.939L79.6009 193.249C82.8082 195.755 81.7725 200.833 77.8302 201.869L71.0481 203.639C69.4111 204.074 68.1081 205.243 67.5401 206.846L65.1347 213.462C63.7649 217.27 58.5864 217.872 56.3814 214.43L52.6061 208.517C51.7041 207.114 50.1673 206.212 48.4968 206.178L41.4474 205.911C37.3715 205.777 35.2333 201.033 37.8392 197.893L42.2826 192.447C43.3517 191.144 43.7193 189.407 43.2515 187.803L41.3138 181.054C40.1779 177.146 44.0199 173.638 47.8286 175.141L54.3768 177.713C55.9471 178.315 57.6844 178.114 59.0876 177.179L64.9008 173.237C68.2417 170.965 72.752 173.537 72.5181 177.613Z" fill="#FF98AA"/>
</mask>
<g mask="url(#mask1)">
<path d="M44.83 170.235L42.5063 173.584L84.0918 202.44L86.4155 199.091L44.83 170.235Z" fill="white"/>
<path d="M51.6263 157.922L45.1313 167.283L86.7168 196.138L93.2117 186.778L51.6263 157.922Z" fill="white"/>
</g>
<path d="M72.5181 177.613L72.1172 184.629C72.017 186.3 72.752 187.903 74.055 188.939L79.6009 193.249C82.8082 195.755 81.7725 200.833 77.8302 201.869L71.0481 203.639C69.4111 204.074 68.1081 205.243 67.5401 206.846L65.1347 213.462C63.7649 217.27 58.5864 217.872 56.3814 214.43L52.6061 208.517C51.7041 207.114 50.1673 206.212 48.4968 206.178L41.4474 205.911C37.3715 205.777 35.2333 201.033 37.8392 197.893L42.2826 192.447C43.3517 191.144 43.7193 189.407 43.2515 187.803L41.3138 181.054C40.1779 177.146 44.0199 173.638 47.8286 175.141L54.3768 177.713C55.9471 178.315 57.6844 178.114 59.0876 177.179L64.9008 173.237C68.2417 170.965 72.752 173.537 72.5181 177.613Z" stroke="black" stroke-width="1.2" stroke-miterlimit="10" stroke-linecap="round" stroke-linejoin="round"/>
<path d="M274.578 7.72653L276.048 14.1077C276.415 15.6446 277.485 16.8807 278.955 17.4487L285.068 19.8541C288.61 21.2573 289.011 26.0683 285.737 28.0394L280.124 31.4138C278.787 32.2156 277.919 33.6522 277.819 35.189L277.418 41.7373C277.184 45.5125 272.707 47.4169 269.834 44.9112L264.889 40.6014C263.72 39.5657 262.083 39.1982 260.579 39.5991L254.232 41.2361C250.557 42.1716 247.383 38.4966 248.886 35.022L251.459 28.9749C252.06 27.5383 251.926 25.8678 251.091 24.5649L247.583 19.0189C245.545 15.8116 248.051 11.6688 251.826 12.0029L258.374 12.5709C259.945 12.7045 261.448 12.0697 262.45 10.867L266.626 5.78878C268.999 2.91557 273.709 4.01808 274.578 7.72653Z" fill="#FF788F"/>
<mask id="mask2" mask-type="alpha" maskUnits="userSpaceOnUse" x="246" y="4" width="42" height="43">
<path d="M274.578 7.72653L276.048 14.1077C276.415 15.6446 277.485 16.8807 278.955 17.4487L285.068 19.8541C288.61 21.2573 289.011 26.0683 285.737 28.0394L280.124 31.4138C278.787 32.2156 277.919 33.6522 277.819 35.189L277.418 41.7373C277.184 45.5125 272.707 47.4169 269.834 44.9112L264.889 40.6014C263.72 39.5657 262.083 39.1982 260.579 39.5991L254.232 41.2361C250.557 42.1716 247.383 38.4966 248.886 35.022L251.459 28.9749C252.06 27.5383 251.926 25.8678 251.091 24.5649L247.583 19.0189C245.545 15.8116 248.051 11.6688 251.826 12.0029L258.374 12.5709C259.945 12.7045 261.448 12.0697 262.45 10.867L266.626 5.78878C268.999 2.91557 273.709 4.01808 274.578 7.72653Z" fill="#FF98AA"/>
</mask>
<g mask="url(#mask2)">
<path d="M293.779 11.23L252.555 -3.56116L245.03 17.4126L286.254 32.2038L293.779 11.23Z" fill="white"/>
<path d="M284.81 36.2475L243.586 21.4563L241.894 26.173L283.118 40.9642L284.81 36.2475Z" fill="white"/>
</g>
<path d="M274.578 7.72653L276.048 14.1077C276.415 15.6446 277.485 16.8807 278.955 17.4487L285.068 19.8541C288.61 21.2573 289.011 26.0683 285.737 28.0394L280.124 31.4138C278.787 32.2156 277.919 33.6522 277.819 35.189L277.418 41.7373C277.184 45.5125 272.707 47.4169 269.834 44.9112L264.889 40.6014C263.72 39.5657 262.083 39.1982 260.579 39.5991L254.232 41.2361C250.557 42.1716 247.383 38.4966 248.886 35.022L251.459 28.9749C252.06 27.5383 251.926 25.8678 251.091 24.5649L247.583 19.0189C245.545 15.8116 248.051 11.6688 251.826 12.0029L258.374 12.5709C259.945 12.7045 261.448 12.0697 262.45 10.867L266.626 5.78878C268.999 2.91557 273.709 4.01808 274.578 7.72653Z" stroke="black" stroke-width="1.2" stroke-miterlimit="10" stroke-linecap="round" stroke-linejoin="round"/>
<path d="M178.058 115.973L171.844 95.1255C171.711 94.591 172.245 94.1567 172.746 94.3905L180.163 98.9342C180.497 99.1012 180.932 98.9342 181.065 98.5667L184.674 90.3814C184.807 89.9805 185.308 89.8134 185.642 90.0473L192.491 95.6601C192.792 95.8939 193.226 95.7937 193.427 95.4596L196.935 88.4102C197.202 87.9091 197.97 88.0093 198.104 88.5773L204.418 108.757C204.485 109.091 204.318 109.425 203.984 109.525L178.86 116.441C178.526 116.541 178.159 116.34 178.058 115.973Z" fill="#FF788F"/>
<path d="M192.625 157.601L187.48 139.694C187.313 139.126 187.948 138.625 188.449 138.925L193.828 142.066C194.229 142.266 195.03 142.066 195.131 141.631L197.169 135.284C197.302 134.816 197.87 134.615 198.271 134.95L203.817 139.092C204.151 139.36 204.619 139.259 204.819 138.925L207.292 133.179C207.592 132.678 208.361 132.778 208.528 133.312L214.241 151.086C214.374 151.454 214.141 151.855 213.773 151.955L193.494 158.102C193.126 158.202 192.725 157.969 192.625 157.601Z" fill="#FF788F"/>
<path d="M205.554 197.458L201.712 183.694C201.545 183.092 202.113 182.591 202.648 182.859L207.258 185.264C207.659 185.464 208.127 185.231 208.227 184.796L210.064 179.518C210.165 179.016 210.733 178.816 211.134 179.117L215.41 182.357C215.744 182.591 216.212 182.491 216.412 182.157L218.317 177.947C218.617 177.446 219.352 177.48 219.553 178.048L223.796 191.445C223.929 191.812 223.729 192.213 223.361 192.347L206.423 197.926C206.055 198.06 205.654 197.859 205.554 197.458Z" fill="#FF788F"/>
<path d="M207.693 87.2409L253.764 75.6478" stroke="#FF788F" stroke-width="1.2" stroke-miterlimit="10" stroke-linecap="round" stroke-linejoin="round"/>
<path d="M210.365 95.8605L249.254 86.0047" stroke="#FF788F" stroke-width="1.2" stroke-miterlimit="10" stroke-linecap="round" stroke-linejoin="round"/>
<path d="M213.105 104.213L264.288 90.7488" stroke="#FF788F" stroke-width="1.2" stroke-miterlimit="10" stroke-linecap="round" stroke-linejoin="round"/>
<path d="M221.658 131.074L268.899 117.844" stroke="#FF788F" stroke-width="1.2" stroke-miterlimit="10" stroke-linecap="round" stroke-linejoin="round"/>
<path d="M224.464 139.593L264.522 128.234" stroke="#FF788F" stroke-width="1.2" stroke-miterlimit="10" stroke-linecap="round" stroke-linejoin="round"/>
<path d="M226.903 147.612L278.621 133.179" stroke="#FF788F" stroke-width="1.2" stroke-miterlimit="10" stroke-linecap="round" stroke-linejoin="round"/>
<path d="M234.353 172.903L281.293 158.937" stroke="#FF788F" stroke-width="1.2" stroke-miterlimit="10" stroke-linecap="round" stroke-linejoin="round"/>
<path d="M236.926 181.622L276.984 169.361" stroke="#FF788F" stroke-width="1.2" stroke-miterlimit="10" stroke-linecap="round" stroke-linejoin="round"/>
<path d="M239.331 189.34L292.152 173.203" stroke="#FF788F" stroke-width="1.2" stroke-miterlimit="10" stroke-linecap="round" stroke-linejoin="round"/>
</svg>
